HIERARCHY
ROOT Hips
{
	OFFSET 0.000000 0.000000 0.000000
	CHANNELS 6 Xposition Yposition Zposition Zrotation Yrotation Xrotation 
	JOINT Spine1
	{
		OFFSET 0.000000 10.000000 0.000000
		CHANNELS 3 Zrotation Yrotation Xrotation
		JOINT Spine2
		{
			OFFSET 0.000000 10.000000 0.000000
			CHANNELS 3 Zrotation Yrotation Xrotation
			JOINT Spine3
			{
				OFFSET 0.000000 10.000000 0.000000
				CHANNELS 3 Zrotation Yrotation Xrotation
				JOINT Spine4
				{
					OFFSET 0.000000 10.000000 0.000000
					CHANNELS 3 Zrotation Yrotation Xrotation
					End Site
					{
						OFFSET 0.000000 0.000000 0.000000
					}
				}
			}
		}
	}
}
MOTION
Frames: 45
Frame Time: 0.033333
0.000000 0.000000 0.000000 -3.987116 -13.045495 -11.355073 35.783946 -9.609817 24.058508 52.322863 -0.871529 41.649957 35.352404 3.916706 29.549179 0.000000 0.000000 0.000000 
0.000000 0.000000 0.000000 -4.042288 -13.112352 -11.436427 35.799453 -9.673366 24.068982 52.389791 -0.890257 41.733621 35.402505 3.934015 29.616523 0.000000 0.000000 0.000000 
0.000000 0.000000 0.000000 -4.096260 -13.178181 -11.516294 35.814570 -9.736036 24.079169 52.455233 -0.908835 41.815680 35.451481 3.950986 29.682574 0.000000 0.000000 0.000000 
0.000000 0.000000 0.000000 -4.149057 -13.242989 -11.594697 35.829308 -9.797828 24.089075 52.519219 -0.927258 41.896159 35.499356 3.967624 29.747350 0.000000 0.000000 0.000000 
0.000000 0.000000 0.000000 -4.200704 -13.306782 -11.671658 35.843675 -9.858744 24.098708 52.581782 -0.945522 41.975083 35.546154 3.983935 29.810873 0.000000 0.000000 0.000000 
0.000000 0.000000 0.000000 -4.251228 -13.369568 -11.747197 35.857680 -9.918787 24.108076 52.642951 -0.963621 42.052477 35.591899 3.999923 29.873163 0.000000 0.000000 0.000000 
0.000000 0.000000 0.000000 -4.300653 -13.431353 -11.821337 35.871331 -9.977958 24.117184 52.702758 -0.981552 42.128366 35.636614 4.015595 29.934240 0.000000 0.000000 0.000000 
0.000000 0.000000 0.000000 -4.349002 -13.492147 -11.894099 35.884638 -10.036260 24.126039 52.761231 -0.999310 42.202774 35.680323 4.030955 29.994123 0.000000 0.000000 0.000000 
0.000000 0.000000 0.000000 -4.396301 -13.551956 -11.965504 35.897609 -10.093698 24.134649 52.818400 -1.016892 42.275725 35.723048 4.046008 30.052833 0.000000 0.000000 0.000000 
0.000000 0.000000 0.000000 -4.442571 -13.610789 -12.035573 35.910252 -10.150275 24.143019 52.874292 -1.034295 42.347244 35.764811 4.060761 30.110388 0.000000 0.000000 0.000000 
0.000000 0.000000 0.000000 -4.487835 -13.668655 -12.104327 35.922575 -10.205995 24.151155 52.928936 -1.051514 42.417354 35.805634 4.075216 30.166809 0.000000 0.000000 0.000000 
0.000000 0.000000 0.000000 -4.532116 -13.725562 -12.171786 35.934585 -10.260863 24.159065 52.982359 -1.068548 42.486079 35.845537 4.089381 30.222114 0.000000 0.000000 0.000000 
0.000000 0.000000 0.000000 -4.575435 -13.781520 -12.237970 35.946291 -10.314884 24.166754 53.034588 -1.085394 42.553443 35.884540 4.103260 30.276323 0.000000 0.000000 0.000000 
0.000000 0.000000 0.000000 -4.617814 -13.836538 -12.302901 35.957700 -10.368063 24.174228 53.085648 -1.102049 42.619469 35.922665 4.116858 30.329453 0.000000 0.000000 0.000000 
0.000000 0.000000 0.000000 -4.659272 -13.890626 -12.366598 35.968819 -10.420405 24.181492 53.135566 -1.118512 42.684179 35.959931 4.130179 30.381525 0.000000 0.000000 0.000000 
0.000000 0.000000 0.000000 -4.699829 -13.943792 -12.429081 35.979655 -10.471918 24.188552 53.184366 -1.134780 42.747598 35.996358 4.143230 30.432556 0.000000 0.000000 0.000000 
0.000000 0.000000 0.000000 -4.739507 -13.996047 -12.490369 35.990217 -10.522606 24.195415 53.232074 -1.150851 42.809746 36.031963 4.156014 30.482564 0.000000 0.000000 0.000000 
0.000000 0.000000 0.000000 -4.778324 -14.047401 -12.550483 36.000509 -10.572476 24.202084 53.278713 -1.166725 42.870647 36.066767 4.168536 30.531568 0.000000 0.000000 0.000000 
0.000000 0.000000 0.000000 -4.816298 -14.097864 -12.609441 36.010539 -10.621536 24.208566 53.324307 -1.182399 42.930322 36.100786 4.180802 30.579585 0.000000 0.000000 0.000000 
0.000000 0.000000 0.000000 -4.853449 -14.147446 -12.667263 36.020315 -10.669791 24.214866 53.368879 -1.197873 42.988793 36.134038 4.192815 30.626633 0.000000 0.000000 0.000000 
0.000000 0.000000 0.000000 -4.889794 -14.196157 -12.723967 36.029841 -10.717249 24.220988 53.412451 -1.213147 43.046082 36.166542 4.204582 30.672729 0.000000 0.000000 0.000000 
0.000000 0.000000 0.000000 -4.925351 -14.244009 -12.779573 36.039124 -10.763918 24.226937 53.455047 -1.228218 43.102210 36.198313 4.216105 30.717891 0.000000 0.000000 0.000000 
0.000000 0.000000 0.000000 -4.960137 -14.291010 -12.834098 36.048171 -10.809805 24.232719 53.496687 -1.243087 43.157198 36.229368 4.227390 30.762135 0.000000 0.000000 0.000000 
0.000000 0.000000 0.000000 -4.994169 -14.337173 -12.887561 36.056987 -10.854918 24.238338 53.537393 -1.257754 43.211067 36.259724 4.238442 30.805478 0.000000 0.000000 0.000000 
0.000000 0.000000 0.000000 -5.027463 -14.382507 -12.939980 36.065579 -10.899264 24.243798 53.577186 -1.272218 43.263837 36.289396 4.249264 30.847937 0.000000 0.000000 0.000000 
0.000000 0.000000 0.000000 -5.060036 -14.427024 -12.991373 36.073952 -10.942851 24.249103 53.616086 -1.286479 43.315528 36.318400 4.259861 30.889528 0.000000 0.000000 0.000000 
0.000000 0.000000 0.000000 -5.091903 -14.470734 -13.041758 36.082111 -10.985689 24.254259 53.654113 -1.300537 43.366160 36.346751 4.270237 30.930266 0.000000 0.000000 0.000000 
0.000000 0.000000 0.000000 -5.123079 -14.513648 -13.091151 36.090062 -11.027784 24.259270 53.691286 -1.314393 43.415753 36.374464 4.280397 30.970169 0.000000 0.000000 0.000000 
0.000000 0.000000 0.000000 -5.153580 -14.555776 -13.139571 36.097811 -11.069146 24.264139 53.727624 -1.328046 43.464326 36.401553 4.290345 31.009251 0.000000 0.000000 0.000000 
0.000000 0.000000 0.000000 -5.183421 -14.597130 -13.187034 36.105362 -11.109783 24.268870 53.763147 -1.341498 43.511899 36.428032 4.300084 31.047528 0.000000 0.000000 0.000000 
0.000000 0.000000 0.000000 -5.212615 -14.637720 -13.233557 36.112720 -11.149704 24.273468 53.797873 -1.354749 43.558490 36.453915 4.309619 31.085014 0.000000 0.000000 0.000000 
0.000000 0.000000 0.000000 -5.241177 -14.677557 -13.279156 36.119892 -11.188916 24.277936 53.831819 -1.367800 43.604117 36.479216 4.318955 31.121726 0.000000 0.000000 0.000000 
0.000000 0.000000 0.000000 -5.269120 -14.716652 -13.323848 36.126880 -11.227430 24.282278 53.865002 -1.380651 43.648800 36.503948 4.328094 31.157678 0.000000 0.000000 0.000000 
0.000000 0.000000 0.000000 -5.296459 -14.755016 -13.367650 36.133691 -11.265253 24.286497 53.897441 -1.393305 43.692555 36.528124 4.337040 31.192884 0.000000 0.000000 0.000000 
0.000000 0.000000 0.000000 -5.323205 -14.792659 -13.410576 36.140329 -11.302395 24.290597 53.929151 -1.405760 43.735402 36.551756 4.345799 31.227358 0.000000 0.000000 0.000000 
0.000000 0.000000 0.000000 -5.349372 -14.829593 -13.452643 36.146798 -11.338864 24.294582 53.960150 -1.418020 43.777356 36.574857 4.354372 31.261116 0.000000 0.000000 0.000000 
0.000000 0.000000 0.000000 -5.374972 -14.865828 -13.493867 36.153102 -11.374670 24.298454 53.990452 -1.430085 43.818437 36.597439 4.362764 31.294169 0.000000 0.000000 0.000000 
0.000000 0.000000 0.000000 -5.400018 -14.901374 -13.534261 36.159246 -11.409821 24.302218 54.020075 -1.441956 43.858659 36.619513 4.370979 31.326533 0.000000 0.000000 0.000000 
0.000000 0.000000 0.000000 -5.424522 -14.936242 -13.573843 36.165234 -11.444326 24.305875 54.049032 -1.453634 43.898041 36.641092 4.379020 31.358220 0.000000 0.000000 0.000000 
0.000000 0.000000 0.000000 -5.448495 -14.970443 -13.612625 36.171071 -11.478195 24.309430 54.077339 -1.465122 43.936598 36.662186 4.386891 31.389245 0.000000 0.000000 0.000000 
0.000000 0.000000 0.000000 -5.471950 -15.003987 -13.650624 36.176759 -11.511436 24.312885 54.105011 -1.476421 43.974346 36.682806 4.394595 31.419619 0.000000 0.000000 0.000000 
0.000000 0.000000 0.000000 -5.494896 -15.036885 -13.687854 36.182303 -11.544058 24.316242 54.132062 -1.487533 44.011303 36.702963 4.402135 31.449355 0.000000 0.000000 0.000000 
0.000000 0.000000 0.000000 -5.517345 -15.069147 -13.724328 36.187707 -11.576070 24.319506 54.158506 -1.498458 44.047482 36.722668 4.409514 31.478467 0.000000 0.000000 0.000000 
0.000000 0.000000 0.000000 -5.539308 -15.100783 -13.760061 36.192974 -11.607482 24.322678 54.184357 -1.509199 44.082900 36.741931 4.416737 31.506966 0.000000 0.000000 0.000000 
0.000000 0.000000 0.000000 -5.560796 -15.131803 -13.795066 36.198108 -11.638301 24.325762 54.209628 -1.519758 44.117571 36.760762 4.423806 31.534865 0.000000 0.000000 0.000000 
